<svg width="294" height="258" viewBox="0 0 294 258" fill="none" xmlns="http://www.w3.org/2000/svg">
<g clip-path="url(#clip0_3575_71)">
<circle cx="146.5" cy="128.5" r="128.5" fill="#D64040"/>
<path d="M61.6904 48.4912C61.6904 47.1891 62.3008 46.3346 63.5215 45.9277C64.8236 45.4395 66.1663 45.1953 67.5498 45.1953H77.0713C77.8851 45.1139 79.4313 45.0326 81.71 44.9512C84.07 44.8698 86.5114 44.7884 89.0342 44.707C91.6383 44.5443 94.0798 44.4222 96.3584 44.3408C98.7184 44.2594 100.387 44.1781 101.363 44.0967C101.526 44.2594 102.096 44.4629 103.072 44.707C104.049 44.8698 104.741 45.0326 105.147 45.1953H105.758C106.816 45.1953 107.752 44.9105 108.565 44.3408C109.461 43.7712 110.356 43.4863 111.251 43.4863C111.414 43.3236 111.902 43.2422 112.716 43.2422C113.367 43.2422 114.059 43.2829 114.791 43.3643C115.523 43.4456 115.971 43.4863 116.134 43.4863C116.785 43.3236 117.802 43.1608 119.186 42.998C120.65 42.7539 122.115 42.5098 123.58 42.2656C125.126 42.0215 126.51 41.818 127.73 41.6553C129.033 41.4925 129.887 41.3704 130.294 41.2891C130.375 41.2891 130.619 41.2077 131.026 41.0449C131.515 40.8822 132.003 40.7194 132.491 40.5566C133.061 40.3125 133.549 40.109 133.956 39.9463C134.444 39.7021 134.77 39.5394 134.933 39.458C135.258 39.2952 135.909 39.0918 136.886 38.8477C137.862 38.5221 138.391 38.3594 138.473 38.3594H144.698H150.802C151.86 38.7663 152.47 39.4173 152.633 40.3125C152.796 41.2077 152.877 42.0622 152.877 42.876C152.877 43.2015 152.836 43.6491 152.755 44.2188C152.674 44.707 152.633 45.0326 152.633 45.1953C152.633 45.3581 152.47 45.6429 152.145 46.0498C151.819 46.3753 151.453 46.7415 151.046 47.1484C150.639 47.474 150.232 47.7995 149.825 48.125C149.5 48.3691 149.256 48.4912 149.093 48.4912C148.442 48.7354 147.384 48.9795 145.919 49.2236C144.454 49.4678 142.908 49.7119 141.28 49.9561C139.734 50.1188 138.229 50.2816 136.764 50.4443C135.38 50.6071 134.404 50.6885 133.834 50.6885C133.753 50.6885 133.549 50.7292 133.224 50.8105C132.898 50.8105 132.491 50.8105 132.003 50.8105C131.026 50.8105 129.928 50.8105 128.707 50.8105C127.568 50.7292 126.835 50.6885 126.51 50.6885C125.37 50.7699 124.109 50.9733 122.726 51.2988C121.424 51.543 120.406 52.2347 119.674 53.374C119.674 53.7809 119.592 54.4727 119.43 55.4492C119.267 56.4258 119.104 57.4837 118.941 58.623C118.779 59.681 118.575 60.7389 118.331 61.7969C118.168 62.7734 118.087 63.4245 118.087 63.75C118.087 63.9128 117.965 64.401 117.721 65.2148C117.477 65.9473 117.354 66.3542 117.354 66.4355C117.273 66.6797 117.192 66.9645 117.11 67.29C117.029 67.6156 116.988 68.0632 116.988 68.6328C116.988 70.5046 117.151 72.2949 117.477 74.0039C117.883 75.7129 118.087 77.6253 118.087 79.7412C118.087 82.7523 117.965 85.682 117.721 88.5303C117.477 91.2972 117.354 94.1455 117.354 97.0752C117.354 97.238 117.395 97.5228 117.477 97.9297C117.558 98.2552 117.639 98.6621 117.721 99.1504C117.802 99.6387 117.883 100.086 117.965 100.493C118.046 100.9 118.087 101.185 118.087 101.348C118.087 101.51 118.087 101.999 118.087 102.812C118.168 103.545 118.209 104.399 118.209 105.376C118.209 106.353 118.209 107.41 118.209 108.55C118.209 109.689 118.168 110.788 118.087 111.846C118.087 112.904 118.087 113.84 118.087 114.653C118.087 115.467 118.087 116.037 118.087 116.362C118.087 116.362 118.128 116.566 118.209 116.973C118.29 117.298 118.372 117.664 118.453 118.071C118.535 118.397 118.616 118.763 118.697 119.17C118.779 119.495 118.819 119.658 118.819 119.658C118.819 119.984 118.86 120.594 118.941 121.489C119.023 122.384 119.104 123.361 119.186 124.419C119.348 125.396 119.47 126.372 119.552 127.349C119.633 128.244 119.674 128.936 119.674 129.424L119.918 129.912C120.081 130.238 120.162 130.482 120.162 130.645C120.162 135.69 119.918 140.736 119.43 145.781C118.941 150.827 118.494 155.913 118.087 161.04C118.087 161.284 118.128 161.732 118.209 162.383C118.29 162.952 118.372 163.604 118.453 164.336C118.535 164.987 118.616 165.638 118.697 166.289C118.779 166.94 118.819 167.388 118.819 167.632C118.901 168.283 118.982 169.382 119.063 170.928C119.226 172.393 119.348 173.979 119.43 175.688C119.511 177.397 119.552 179.025 119.552 180.571C119.633 182.036 119.674 183.053 119.674 183.623C119.837 183.867 119.918 184.518 119.918 185.576C119.918 186.553 119.918 187.692 119.918 188.994C119.918 190.215 119.877 191.476 119.796 192.778C119.796 194.08 119.796 195.342 119.796 196.562C119.796 197.702 119.755 198.719 119.674 199.614C119.674 200.428 119.674 200.957 119.674 201.201C119.755 201.608 119.837 202.178 119.918 202.91C120.081 203.643 120.243 204.375 120.406 205.107C120.569 205.84 120.813 206.532 121.139 207.183C121.546 207.752 122.075 208.159 122.726 208.403C123.051 208.403 123.702 208.444 124.679 208.525C125.655 208.607 126.673 208.688 127.73 208.77C128.87 208.77 129.928 208.81 130.904 208.892C131.881 208.973 132.532 209.014 132.857 209.014C133.183 209.014 133.712 209.095 134.444 209.258C135.177 209.421 135.624 209.543 135.787 209.624C136.682 209.624 138.229 209.624 140.426 209.624C142.704 209.543 145.227 209.502 147.994 209.502C150.598 209.502 153.04 209.543 155.318 209.624C157.597 209.624 159.184 209.624 160.079 209.624C160.16 209.624 160.445 209.665 160.934 209.746C161.503 209.827 162.114 209.95 162.765 210.112C163.416 210.194 164.026 210.316 164.596 210.479C165.247 210.56 165.654 210.641 165.816 210.723C169.316 210.885 172.937 211.211 176.681 211.699C180.506 212.188 184.249 212.432 187.911 212.432C188.969 212.432 189.783 212.391 190.353 212.31C191.004 212.147 191.899 211.903 193.038 211.577C194.91 210.601 196.741 209.624 198.531 208.647C200.322 207.59 202.153 206.572 204.024 205.596C204.513 205.026 204.96 204.578 205.367 204.253C205.774 203.927 206.181 203.643 206.588 203.398C206.995 203.154 207.402 202.869 207.809 202.544C208.297 202.218 208.867 201.771 209.518 201.201C211.878 199.167 213.953 196.888 215.743 194.365C217.615 191.842 219.405 189.279 221.114 186.675C222.823 183.989 224.532 181.344 226.241 178.74C227.95 176.055 229.903 173.613 232.101 171.416C232.101 171.253 232.304 171.172 232.711 171.172H232.833C232.833 171.172 232.996 171.253 233.321 171.416L233.565 172.148C233.647 172.311 233.728 172.474 233.81 172.637C233.891 172.799 233.932 172.962 233.932 173.125C234.013 173.369 234.135 173.979 234.298 174.956C234.461 175.851 234.623 176.868 234.786 178.008C234.949 179.147 235.112 180.246 235.274 181.304C235.437 182.362 235.559 183.135 235.641 183.623V184.355V185.332C235.641 185.739 235.559 186.675 235.396 188.14C235.234 189.523 235.03 191.069 234.786 192.778C234.623 194.487 234.461 196.115 234.298 197.661C234.135 199.126 234.013 200.103 233.932 200.591C233.932 200.835 233.891 201.486 233.81 202.544C233.728 203.602 233.647 204.782 233.565 206.084C233.565 207.305 233.525 208.485 233.443 209.624C233.362 210.682 233.321 211.333 233.321 211.577C232.914 214.181 232.141 216.257 231.002 217.803C229.863 219.268 228.113 220 225.753 220C225.021 219.837 223.718 219.756 221.847 219.756C219.975 219.756 217.981 219.756 215.865 219.756C213.749 219.756 211.756 219.756 209.884 219.756C208.012 219.756 206.751 219.837 206.1 220C205.937 220 205.611 220 205.123 220C204.716 220.081 204.228 220.163 203.658 220.244C203.089 220.326 202.56 220.366 202.071 220.366C201.664 220.448 201.38 220.529 201.217 220.61H176.07C175.501 220.692 174.036 220.773 171.676 220.854C169.397 221.017 166.956 221.139 164.352 221.221C161.747 221.383 159.265 221.506 156.905 221.587C154.627 221.668 153.202 221.709 152.633 221.709H152.267H151.656C151.168 221.628 149.907 221.506 147.872 221.343C145.919 221.18 143.762 220.977 141.402 220.732C139.124 220.57 137.008 220.407 135.055 220.244C133.102 220.081 131.881 220 131.393 220H122.726C122.563 220 122.075 219.919 121.261 219.756C120.447 219.512 119.918 219.39 119.674 219.39C119.674 219.39 119.47 219.43 119.063 219.512C118.738 219.593 118.372 219.674 117.965 219.756C117.558 219.756 117.151 219.797 116.744 219.878C116.419 219.959 116.215 220 116.134 220H110.396C104.049 220.163 97.6605 220.488 91.2314 220.977C84.8838 221.465 78.4548 221.709 71.9443 221.709H66.085C65.9222 221.709 65.7188 221.668 65.4746 221.587C65.3118 221.506 64.8643 221.18 64.1318 220.61C63.9691 220.448 63.8063 220.081 63.6436 219.512C63.5622 218.942 63.5215 218.413 63.5215 217.925C63.5215 217.03 63.6842 216.257 64.0098 215.605C64.4167 214.873 64.9456 214.425 65.5967 214.263C65.7594 214.181 66.085 214.019 66.5732 213.774C67.0615 213.449 67.387 213.205 67.5498 213.042C69.1774 212.31 71.0898 211.943 73.2871 211.943C75.5658 211.943 77.8444 211.903 80.123 211.821C82.4017 211.659 84.5176 211.292 86.4707 210.723C88.4238 210.072 89.9294 208.81 90.9873 206.938C91.0687 206.613 91.1501 206.003 91.2314 205.107C91.3128 204.131 91.3942 203.154 91.4756 202.178C91.557 201.12 91.6383 200.184 91.7197 199.37C91.8011 198.475 91.8418 197.905 91.8418 197.661C91.8418 197.417 91.679 196.888 91.3535 196.074C91.1094 195.179 90.9873 194.65 90.9873 194.487V188.14L90.6211 185.332C90.5397 185.169 90.499 185.007 90.499 184.844C90.4176 184.681 90.377 184.518 90.377 184.355C90.377 183.053 90.4583 181.955 90.6211 181.06C90.8652 180.164 90.9873 179.147 90.9873 178.008V176.055C90.9873 175.729 90.9059 175.2 90.7432 174.468C90.6618 173.735 90.6211 173.288 90.6211 173.125C90.6211 172.881 90.6618 172.271 90.7432 171.294C90.9059 170.317 90.9873 169.666 90.9873 169.341V161.04C90.9873 160.633 91.1501 159.901 91.4756 158.843C91.8011 157.785 91.9232 157.052 91.8418 156.646C91.679 156.239 91.5163 155.099 91.3535 153.228C91.2721 151.356 91.1501 148.345 90.9873 144.194V135.771C91.1501 131.621 91.2721 128.651 91.3535 126.86C91.5163 125.07 91.679 124.012 91.8418 123.687V123.076C91.8418 119.984 91.679 116.891 91.3535 113.799C91.1094 110.706 90.9873 107.614 90.9873 104.521C90.9873 103.952 90.9466 103.382 90.8652 102.812C90.7839 102.243 90.7432 101.673 90.7432 101.104C90.7432 100.371 90.9059 99.3538 91.2314 98.0518C91.6383 96.6683 91.8418 95.0814 91.8418 93.291C91.8418 91.2565 91.8011 89.1813 91.7197 87.0654C91.6383 84.8682 91.5977 82.7116 91.5977 80.5957C91.5977 78.724 91.6383 76.8929 91.7197 75.1025C91.8011 73.2308 91.8418 71.359 91.8418 69.4873C91.4349 68.5921 91.1501 67.5342 90.9873 66.3135C90.9059 65.0928 90.7839 63.9128 90.6211 62.7734C90.5397 61.5527 90.377 60.4541 90.1328 59.4775C89.9701 58.4196 89.5632 57.6465 88.9121 57.1582C87.7728 56.263 86.1045 55.6934 83.9072 55.4492C81.7913 55.1237 79.4313 54.8389 76.8271 54.5947C74.6299 54.432 72.3919 54.3099 70.1133 54.2285C67.916 54.0658 66.085 53.6589 64.6201 53.0078C62.667 52.2754 61.6904 50.7699 61.6904 48.4912Z" fill="white"/>
</g>
<defs>
<clipPath id="clip0_3575_71">
<rect width="294" height="258" fill="white"/>
</clipPath>
</defs>
</svg>
